HIERARCHY
ROOT Hips
{
	OFFSET -3.958830 18.904000 13.208200
	CHANNELS 6 Xposition Yposition Zposition Zrotation Yrotation Xrotation 
	JOINT LHipJoint
	{
		OFFSET 0.000000 0.000000 0.000000
		CHANNELS 3 Zrotation Yrotation Xrotation
		JOINT LeftUpLeg
		{
			OFFSET 1.800000 -1.400000 0.085000
			CHANNELS 3 Zrotation Yrotation Xrotation
			JOINT LeftLeg
			{
				OFFSET 2.215000 -6.000000 0.000000
				CHANNELS 3 Zrotation Yrotation Xrotation
				JOINT LeftFoot
				{
					OFFSET 2.500000 -6.900000 0.000000
					CHANNELS 3 Zrotation Yrotation Xrotation
					JOINT LeftToeBase
					{
						OFFSET 0.200000 -0.500000 1.950000
						CHANNELS 3 Zrotation Yrotation Xrotation
						End Site
						{
							OFFSET 0.000000 0.000000 0.000000
						}
					}
				}
			}
		}
	}
	JOINT RHipJoint
	{
		OFFSET 0.000000 0.000000 0.000000
		CHANNELS 3 Zrotation Yrotation Xrotation
		JOINT RightUpLeg
		{
			OFFSET -1.800000 -1.400000 0.085000
			CHANNELS 3 Zrotation Yrotation Xrotation
			JOINT RightLeg
			{
				OFFSET -2.215000 -6.000000 0.000000
				CHANNELS 3 Zrotation Yrotation Xrotation
				JOINT RightFoot
				{
					OFFSET -2.500000 -6.900000 0.000000
					CHANNELS 3 Zrotation Yrotation Xrotation
					JOINT RightToeBase
					{
						OFFSET -0.200000 -0.500000 1.950000
						CHANNELS 3 Zrotation Yrotation Xrotation
						End Site
						{
							OFFSET 0.000000 0.000000 0.000000
						}
					}
				}
			}
		}
	}
	JOINT LowerBack
	{
		OFFSET 0.000000 0.000000 0.000000
		CHANNELS 3 Zrotation Yrotation Xrotation
		JOINT Spine
		{
			OFFSET -0.087000 1.940000 -0.288900
			CHANNELS 3 Zrotation Yrotation Xrotation
			JOINT Spine1
			{
				OFFSET 0.000000 1.950000 0.060000
				CHANNELS 3 Zrotation Yrotation Xrotation
				JOINT Neck
				{
					OFFSET 0.000000 0.000000 0.000000
					CHANNELS 3 Zrotation Yrotation Xrotation
					JOINT Neck1
					{
						OFFSET 0.000000 1.600000 0.340000
						CHANNELS 3 Zrotation Yrotation Xrotation
						JOINT Head
						{
							OFFSET 0.000000 1.667000 -0.240000
							CHANNELS 3 Zrotation Yrotation Xrotation
							End Site
							{
								OFFSET 0.000000 0.000000 0.000000
							}
						}
					}
				}
				JOINT LeftShoulder
				{
					OFFSET 0.000000 0.000000 0.000000
					CHANNELS 3 Zrotation Yrotation Xrotation
					JOINT LeftArm
					{
						OFFSET 2.700000 1.550000 -0.730000
						CHANNELS 3 Zrotation Yrotation Xrotation
						JOINT LeftForeArm
						{
							OFFSET 5.450000 0.000000 0.000000
							CHANNELS 3 Zrotation Yrotation Xrotation
							JOINT LeftHand
							{
								OFFSET 3.450000 0.000000 0.000000
								CHANNELS 3 Zrotation Yrotation Xrotation
								JOINT LeftHandIndex1
								{
									OFFSET 0.750000 0.000000 0.000000
									CHANNELS 3 Zrotation Yrotation Xrotation
									End Site
									{
										OFFSET 0.000000 0.000000 0.000000
									}
								}
							}
						}
					}
				}
				JOINT RightShoulder
				{
					OFFSET 0.000000 0.000000 0.000000
					CHANNELS 3 Zrotation Yrotation Xrotation
					JOINT RightArm
					{
						OFFSET -2.700000 1.550000 -0.730000
						CHANNELS 3 Zrotation Yrotation Xrotation
						JOINT RightForeArm
						{
							OFFSET -5.450000 0.000000 0.000000
							CHANNELS 3 Zrotation Yrotation Xrotation
							JOINT RightHand
							{
								OFFSET -3.450000 0.000000 0.000000
								CHANNELS 3 Zrotation Yrotation Xrotation
								JOINT RightHandIndex1
								{
									OFFSET -0.750000 0.000000 0.000000
									CHANNELS 3 Zrotation Yrotation Xrotation
									End Site
									{
										OFFSET 0.000000 0.000000 0.000000
									}
								}
							}
						}
					}
				}
			}
		}
	}
}
MOTION
Frames: 12
Frame Time: 0.016667
-3.610920 16.146870 -6.769560 -14.315290 -22.388323 -6.558903 -15.189187 11.693776 5.249376 8.424703 -3.740812 -47.611624 -10.661781 10.454494 33.120158 -0.025127 6.749575 2.123445 0.518760 0.137410 0.301780 18.404516 -10.487918 2.787877 4.982569 1.632893 4.277778 2.239904 -9.332459 45.268556 -1.549425 -7.677860 1.979399 -0.068900 0.169300 0.347850 -3.673948 -0.843590 -8.556789 6.257192 3.320976 41.753674 -5.591648 9.482095 5.638317 1.621188 -8.206605 -12.134452 -16.704615 10.424228 40.923206 8.101980 2.335770 -20.449540 -19.654627 -8.464371 5.115895 -48.445682 -1.065796 -11.740010 -91.885615 -81.048674 64.434981 -4.085494 2.171865 0.795030 -0.119220 0.218100 0.299290 15.963332 21.096933 8.806906 44.171981 15.460550 -11.498802 100.889215 77.814375 65.392174 3.753767 1.349853 -0.041920 0.189240 -0.083750 -0.130540 
-3.645700 16.062830 -6.559740 -15.455527 -20.779915 -6.384237 -15.062273 11.758503 4.995703 6.921422 -3.701322 -46.209544 -9.029218 9.055523 30.171760 -0.153039 5.900541 2.453380 0.459840 0.066570 0.249420 18.475819 -10.705480 2.984669 6.081631 0.616988 6.440702 1.356249 -9.141003 45.108319 -1.562540 -7.784800 1.978550 -0.093970 0.235120 0.318800 -3.929903 -0.478741 -8.497271 9.547589 2.430436 37.859972 -6.817057 9.020674 6.493155 1.966178 -7.753610 -13.038785 -15.849904 10.680444 42.537147 9.274550 2.003560 -15.795810 -19.584941 -8.757741 5.592404 -48.215406 -0.754892 -11.266157 -65.994446 -84.504852 45.241016 -3.582360 3.262455 0.768700 -0.075990 0.163890 0.307850 15.409344 20.397013 10.041305 43.560386 14.580738 -6.870242 72.250664 87.123912 47.802482 2.976489 -0.408406 -0.081700 0.211480 -0.058110 -0.125350 
-3.702520 16.004210 -6.352090 -15.527831 -19.412120 -6.396494 -15.005530 11.792269 4.871611 5.717425 -3.889007 -45.305866 -8.200755 8.714530 29.894335 -0.239196 5.739521 2.499951 0.388540 -0.050170 0.184590 18.505078 -10.794196 3.116365 6.955489 -0.042906 8.254303 0.004023 -8.555763 45.010225 -1.548717 -7.844894 1.945883 -0.129290 0.293860 0.329050 -4.031786 -0.345277 -8.514201 10.405943 2.639797 33.708529 -6.996641 8.917963 6.881059 1.792034 -7.503421 -14.322577 -15.790954 11.590159 45.215249 11.263060 1.460800 -10.691690 -19.210813 -11.382481 6.925419 -47.903689 0.983695 -15.157171 -20.628681 -82.212315 6.040480 -3.328058 3.394926 0.783990 -0.035620 0.107170 0.282480 15.688952 22.615703 11.011088 42.705508 11.676646 -14.751211 27.282696 82.722691 12.165242 1.820705 -1.726153 -0.129780 0.195550 0.020380 -0.144410 
-3.731200 15.967240 -6.160440 -15.252551 -18.169040 -7.459277 -14.972501 11.841743 4.759491 4.747987 -4.135095 -44.075392 -7.661226 8.994684 32.007388 -0.252188 6.013041 2.390576 0.378230 -0.059080 0.177190 18.523437 -10.822007 3.210059 7.379491 -0.277118 10.260683 -1.238807 -8.152570 46.171678 -1.612467 -8.019247 1.896031 -0.114600 0.309230 0.298160 -4.097943 -0.331963 -8.510131 10.828348 2.643018 31.831058 -7.161683 8.852132 7.399079 1.688785 -7.882781 -15.147499 -17.265076 12.856364 47.478622 13.422740 1.208980 -10.378760 -18.822026 -13.235038 7.611808 -48.355646 1.007268 -17.078953 5.147130 -76.291246 -13.721246 -3.285523 3.071435 0.827780 -0.046130 0.105830 0.262260 15.719129 24.494719 11.461459 40.674651 10.579780 -18.017816 0.527142 75.912277 -7.042437 1.665315 -1.407117 -0.170070 0.248580 0.054750 -0.161050 
-3.752570 15.957650 -5.945300 -14.888980 -16.031703 -8.154922 -14.973994 11.809970 4.760120 3.931786 -4.868284 -42.979117 -8.119227 9.781312 35.097749 -0.165708 6.597667 2.170498 0.385190 -0.055630 0.199810 18.529650 -10.750016 3.300391 8.315008 -0.659375 11.787737 -2.348300 -7.732470 46.889507 -1.668361 -8.134213 1.859719 -0.114140 0.298300 0.307790 -4.107097 -0.400770 -8.594681 11.056285 2.612384 29.353388 -7.541826 8.694358 8.378496 2.025517 -7.445753 -16.397365 -17.412765 12.915565 50.844470 13.163780 1.006200 -8.850320 -19.410314 -16.311268 8.520113 -46.854153 1.494749 -17.873127 12.953291 -70.024772 -17.373465 -3.274033 2.916429 0.844660 -0.039930 0.121170 0.240940 15.877935 26.900115 12.354650 39.438791 9.487085 -19.137963 -12.483195 65.114301 -12.224620 1.590531 -1.219015 -0.164840 0.248920 0.067680 -0.174700 
-3.769440 15.964030 -5.735120 -13.708201 -13.371724 -8.580827 -15.004809 11.814880 4.772331 2.389128 -5.821702 -42.068117 -8.155083 9.807958 35.763749 -0.165097 6.654846 2.152169 0.355120 -0.093670 0.183010 18.495840 -10.750762 3.253197 7.045309 -0.691467 12.664874 -0.418815 -9.017128 46.860550 -1.678625 -8.324650 1.793652 -0.120650 0.321620 0.305100 -4.017147 -0.513174 -8.629960 9.542076 3.245568 27.230858 -7.240970 8.805020 8.837440 1.827497 -6.931155 -16.987441 -17.026732 12.417572 52.146397 13.814780 0.244790 -7.428510 -18.743835 -17.756247 8.716900 -45.420098 0.745311 -16.901716 10.929871 -63.871561 -14.099982 -3.312296 2.902105 0.844640 -0.021070 0.100480 0.219290 15.778162 27.644118 12.871621 38.662756 8.245142 -17.891186 -16.203266 54.914520 -11.040987 1.608334 -1.186589 -0.185570 0.256570 0.101210 -0.181020 
-3.759980 16.014370 -5.541580 -13.326604 -10.373148 -8.712759 -15.023575 11.854887 4.743305 1.162991 -6.653448 -40.501532 -8.275270 9.724092 36.086580 -0.174845 6.658672 2.150566 0.340820 -0.115130 0.177050 18.479044 -10.707085 3.240360 6.744775 -0.429240 12.009831 1.379675 -10.334115 48.255537 -1.725860 -8.594284 1.698910 -0.118410 0.326780 0.292900 -3.979386 -0.691866 -8.668520 9.115571 3.118007 25.849178 -7.466070 8.544869 9.514968 1.944759 -6.439444 -17.958423 -16.899937 12.092912 53.516526 14.695550 -0.595950 -6.508430 -18.191022 -19.975982 9.053589 -44.992485 -0.651564 -15.891094 11.357144 -55.966047 -12.265362 -3.325717 2.859471 0.858930 -0.022240 0.091860 0.202690 15.164656 29.047455 13.771816 38.493773 6.953029 -16.109620 -17.653961 45.295773 -9.240540 1.659132 -1.188105 -0.206520 0.267910 0.123390 -0.191410 
-3.733000 16.096550 -5.342060 -12.797890 -7.491926 -9.481033 -14.996708 11.955240 4.612777 -0.070431 -7.148958 -37.141200 -9.547986 10.041847 35.890207 -0.201133 6.743740 2.122753 0.341020 -0.122370 0.195960 18.489236 -10.721224 3.230585 5.968218 0.501113 10.895683 3.450288 -12.106190 51.059097 -1.842079 -9.037847 1.548206 -0.101450 0.321380 0.262870 -4.047852 -0.797284 -8.658050 9.311503 2.585848 25.625246 -8.369564 8.231934 9.835743 2.000722 -6.409342 -18.957626 -18.186366 12.681892 55.640253 16.318290 -1.122660 -7.693440 -18.227896 -21.733306 9.237399 -44.206972 -1.301632 -14.624277 10.053056 -48.749548 -10.059405 -3.330561 2.778747 0.933100 -0.055100 0.111970 0.178920 15.204391 30.278681 14.613891 38.049354 5.771108 -13.524368 -17.045280 35.443665 -6.739114 1.736882 -1.133738 -0.254990 0.327910 0.149910 -0.217990 
-3.690560 16.207370 -5.127920 -12.301639 -4.761804 -10.447261 -14.992004 12.241905 4.319798 -1.216384 -6.701293 -32.808251 -9.993545 9.435772 32.710574 -0.307019 6.155138 2.336314 0.373260 -0.089390 0.233920 18.448683 -10.747800 3.271730 4.934841 1.875724 9.089277 5.686107 -14.232174 54.792008 -2.006976 -9.637803 1.364440 -0.080830 0.291580 0.234380 -4.011839 -1.057043 -8.601330 9.243683 2.380728 25.660180 -8.304830 8.044563 9.632506 2.123543 -6.456365 -19.837746 -19.963706 13.407322 58.612362 17.044920 -1.714560 -8.041940 -19.272576 -22.571334 9.160378 -43.900929 -1.339093 -13.007155 6.054327 -41.995100 -7.207308 -3.322870 2.737260 0.982600 -0.094720 0.144160 0.174480 16.180439 30.874539 15.439013 36.944896 3.668385 -10.516783 -13.441509 26.911670 -3.903743 1.842447 -1.074544 -0.267760 0.365350 0.138230 -0.232810 
-3.650740 16.293340 -4.913500 -11.812507 -1.820804 -10.338738 -15.028827 12.412067 4.128914 -3.054543 -6.546193 -29.383188 -9.546271 8.773298 30.517871 -0.354044 5.660383 2.528212 0.382700 -0.072120 0.244230 18.400282 -10.667319 3.319447 3.707101 3.750578 5.662098 8.376736 -16.999094 59.254563 -2.199168 -10.440376 1.125470 -0.075270 0.270380 0.214570 -3.930256 -1.308886 -8.614017 8.745802 2.388699 24.970548 -8.026463 7.587969 8.385111 2.255421 -6.069601 -19.849361 -20.087924 13.611713 60.780664 16.874050 -1.964620 -6.904300 -20.306770 -22.126805 8.856753 -44.431347 -1.031568 -10.756826 2.439211 -34.300535 -4.766020 -3.355682 2.714382 0.984410 -0.109670 0.154750 0.176210 16.941348 29.901696 15.455508 37.339963 1.952860 -8.161528 -9.892076 20.807738 -2.069037 1.949681 -1.016039 -0.264320 0.367640 0.124230 -0.234930 
-3.591540 16.366860 -4.727990 -12.544785 0.681491 -10.341307 -15.049194 12.553948 3.861412 -3.668549 -5.888993 -26.274680 -8.958357 8.195536 28.533778 -0.434839 5.313686 2.648269 0.375520 -0.094590 0.245120 18.390858 -10.437681 3.526006 3.520773 6.033985 1.402618 11.017517 -20.365139 64.884277 -2.465526 -11.523399 0.801911 -0.078080 0.252680 0.219340 -3.928124 -1.621059 -8.646836 10.356903 1.958610 25.461291 -7.788769 7.158146 6.517382 2.542327 -5.992987 -19.166883 -20.881078 13.700777 61.696047 16.623050 -2.580860 -6.975420 -21.545396 -20.475330 7.808120 -45.715429 -1.465266 -8.524649 -1.835125 -27.259356 -2.969585 -3.426000 2.680032 1.007200 -0.120840 0.156560 0.155530 17.459644 27.846695 15.169579 37.321253 -1.029981 -7.617824 -6.092715 18.549366 -1.028487 1.993609 -0.950449 -0.273020 0.355460 0.143280 -0.249310 
-3.513470 16.436570 -4.605630 -13.598360 3.256704 -10.507430 -15.070677 12.595456 3.604153 -3.810652 -5.371127 -24.086382 -8.174736 7.731855 27.401297 -0.481994 5.092272 2.732441 0.404520 -0.078330 0.288130 18.402468 -10.043777 3.859670 2.655551 8.888313 -4.149559 14.719242 -25.302024 70.803164 -2.851554 -12.916032 0.421510 -0.072850 0.210640 0.227920 -3.957416 -1.985687 -8.740589 12.748693 0.991431 26.981451 -8.189395 6.615704 5.056103 3.265688 -5.677540 -18.813760 -21.548743 13.641611 63.413059 15.049610 -2.955320 -7.509630 -22.708112 -19.821566 6.870995 -46.904724 -2.285880 -6.458727 -4.799389 -20.140674 -1.982494 -3.466199 2.636671 1.036680 -0.144670 0.186990 0.148920 17.020805 26.636306 15.105493 37.857224 -3.900406 -8.042748 -4.102985 17.722189 -0.624907 2.008946 -0.912733 -0.262810 0.351630 0.130070 -0.265300 
